<svg width="32" height="33" viewBox="0 0 32 33" fill="none" xmlns="http://www.w3.org/2000/svg">
<mask id="mask0_2358_59" style="mask-type:alpha" maskUnits="userSpaceOnUse" x="0" y="0" width="32" height="33">
<rect y="0.5" width="32" height="32" fill="#AE81E9"/>
</mask>
<g mask="url(#mask0_2358_59)">
<path d="M1.33334 27.1666V21.8333C1.33334 21.0777 1.59445 20.4444 2.11668 19.9333C2.6389 19.4221 3.26668 19.1666 4.00001 19.1666H8.36668C8.81112 19.1666 9.23334 19.2777 9.63334 19.4999C10.0333 19.7221 10.3556 20.0221 10.6 20.3999C11.2445 21.2666 12.0389 21.9444 12.9833 22.4333C13.9278 22.9221 14.9333 23.1666 16 23.1666C17.0889 23.1666 18.1056 22.9221 19.05 22.4333C19.9945 21.9444 20.7778 21.2666 21.4 20.3999C21.6889 20.0221 22.0278 19.7221 22.4167 19.4999C22.8056 19.2777 23.2111 19.1666 23.6333 19.1666H28C28.7556 19.1666 29.3889 19.4221 29.9 19.9333C30.4111 20.4444 30.6667 21.0777 30.6667 21.8333V27.1666H21.3333V24.1333C20.5556 24.6888 19.7167 25.111 18.8167 25.3999C17.9167 25.6888 16.9778 25.8333 16 25.8333C15.0445 25.8333 14.1111 25.6833 13.2 25.3833C12.2889 25.0833 11.4445 24.6555 10.6667 24.0999V27.1666H1.33334ZM16 21.8333C15.1556 21.8333 14.3556 21.6388 13.6 21.2499C12.8445 20.861 12.2111 20.3221 11.7 19.6333C11.3222 19.0777 10.85 18.6388 10.2833 18.3166C9.71668 17.9944 9.10001 17.8333 8.43334 17.8333C8.92223 17.011 9.95557 16.361 11.5333 15.8833C13.1111 15.4055 14.6 15.1666 16 15.1666C17.4 15.1666 18.8889 15.4055 20.4667 15.8833C22.0445 16.361 23.0778 17.011 23.5667 17.8333C22.9222 17.8333 22.3111 17.9944 21.7333 18.3166C21.1556 18.6388 20.6778 19.0777 20.3 19.6333C19.8111 20.3444 19.1889 20.8888 18.4333 21.2666C17.6778 21.6444 16.8667 21.8333 16 21.8333ZM5.33334 17.8333C4.22223 17.8333 3.27779 17.4444 2.50001 16.6666C1.72223 15.8888 1.33334 14.9444 1.33334 13.8333C1.33334 12.6999 1.72223 11.7499 2.50001 10.9833C3.27779 10.2166 4.22223 9.83325 5.33334 9.83325C6.46668 9.83325 7.41668 10.2166 8.18334 10.9833C8.95001 11.7499 9.33334 12.6999 9.33334 13.8333C9.33334 14.9444 8.95001 15.8888 8.18334 16.6666C7.41668 17.4444 6.46668 17.8333 5.33334 17.8333ZM26.6667 17.8333C25.5556 17.8333 24.6111 17.4444 23.8333 16.6666C23.0556 15.8888 22.6667 14.9444 22.6667 13.8333C22.6667 12.6999 23.0556 11.7499 23.8333 10.9833C24.6111 10.2166 25.5556 9.83325 26.6667 9.83325C27.8 9.83325 28.75 10.2166 29.5167 10.9833C30.2833 11.7499 30.6667 12.6999 30.6667 13.8333C30.6667 14.9444 30.2833 15.8888 29.5167 16.6666C28.75 17.4444 27.8 17.8333 26.6667 17.8333ZM16 13.8333C14.8889 13.8333 13.9445 13.4444 13.1667 12.6666C12.3889 11.8888 12 10.9444 12 9.83325C12 8.69992 12.3889 7.74992 13.1667 6.98325C13.9445 6.21659 14.8889 5.83325 16 5.83325C17.1333 5.83325 18.0833 6.21659 18.85 6.98325C19.6167 7.74992 20 8.69992 20 9.83325C20 10.9444 19.6167 11.8888 18.85 12.6666C18.0833 13.4444 17.1333 13.8333 16 13.8333Z" fill="#AE81E9"/>
</g>
</svg>
