<svg xmlns="http://www.w3.org/2000/svg" width="40" height="41" viewBox="0 0 40 41" fill="none">
    <path fill="#AE81E9"
        d="M32.416 1.528H21.935c-3.044 0-6.277-.295-9.113 1.036-2.505 1.178-4.747 3.254-5.828 5.88-.137.333-.726 1.55-.476 1.87.216.277 1.323.01 1.638-.007 1.64-.09 3.286-.058 4.925.03h.045a4.054 4.054 0 0 1 2.883 1.248 4.09 4.09 0 0 1 1.14 2.938c-.07 3.071-3.663 4.967-6.247 3.369a4.006 4.006 0 0 1-1.022-.904 3.907 3.907 0 0 1-.71-1.466 5.29 5.29 0 0 1-.136-.837c-.026-.288.037-.628-.071-.899-.157-.394-.64-.395-.992-.413-.26-.019-.52 0-.774.057-.808.199-1.026.918-.994 1.675.046 1.226.29 2.436.725 3.583a12.122 12.122 0 0 0 4.108 4.884 12.044 12.044 0 0 0 6.008 2.11h6.965a.763.763 0 0 1 .764.768v8.962c0 1.084.429 2.124 1.192 2.89a4.06 4.06 0 0 0 2.877 1.198h.946c1.956 0 3.766-1.581 4.012-3.616V2.918c0-.369-.146-.722-.405-.983a1.38 1.38 0 0 0-.979-.407Zm-4.036 13.03a4.1 4.1 0 0 1-.74 2.22 4.072 4.072 0 0 1-1.832 1.449 4.052 4.052 0 0 1-4.372-.912 4.094 4.094 0 0 1-.907-4.393 4.086 4.086 0 0 1 1.441-1.84 4.058 4.058 0 0 1 2.21-.743 4.067 4.067 0 0 1 3.006 1.2 4.102 4.102 0 0 1 1.194 3.02Z" />
</svg>