<svg width="381" height="631" viewBox="0 0 381 631" fill="none" xmlns="http://www.w3.org/2000/svg">
<g filter="url(#filter0_f_21_77)">
<path fill-rule="evenodd" clip-rule="evenodd" d="M48.5479 535.079C30.2973 543.724 8.49424 535.937 -0.150583 517.687L-146.256 209.234C-148.62 204.243 -146.491 198.28 -141.5 195.916L-6.33773 131.893C15.6927 121.458 37.1876 116.794 58.1469 117.903C79.2819 118.519 98.3177 124.626 115.254 136.223C125.061 142.719 133.765 150.922 141.368 160.833C141.817 161.417 141.491 162.267 140.773 162.429C136.009 163.506 131.016 165.281 125.792 167.755L79.9646 189.462C68.5409 194.874 61.2274 202.782 58.0242 213.187C54.5552 223.717 55.5318 234.706 60.9539 246.153C66.2438 257.321 73.9948 265.101 84.2072 269.493C94.2872 273.606 104.641 273.146 115.267 268.112C125.097 263.456 131.481 255.989 134.418 245.71C137.224 235.151 135.981 224.288 130.691 213.12L129.413 210.422C128.257 207.98 129.298 205.064 131.739 203.907L140.071 199.961C151.27 194.656 159.892 197.175 165.937 207.516C171.857 224.41 173.93 241.12 172.156 257.646C170.066 278.256 162.644 297.099 149.89 314.176C137.312 330.762 120.341 344.114 98.9786 354.233L29.9081 386.95C24.9168 389.314 22.7872 395.277 25.1514 400.268L65.9407 486.381C74.5856 504.632 66.7985 526.435 48.5479 535.079ZM33.4604 294.043C36.6648 282.954 35.6222 271.826 30.3323 260.658C24.9102 249.211 16.9602 241.354 6.48219 237.088C-4.26146 232.947 -15.2123 233.52 -26.3703 238.805C-37.5283 244.09 -44.7756 252.138 -48.1123 262.948C-51.7147 273.884 -50.8048 285.075 -45.3827 296.522C-40.0929 307.69 -32.01 315.483 -21.1341 319.903C-10.6561 324.17 0.161857 323.66 11.3199 318.375C22.4779 313.09 29.8581 304.979 33.4604 294.043Z" fill="white" fill-opacity="0.02"/>
<path d="M58.974 213.499L58.977 213.49L58.9799 213.481C62.0871 203.388 69.1778 195.678 80.3927 190.366L126.22 168.659C131.389 166.21 136.313 164.462 140.993 163.405C142.391 163.089 143.074 161.413 142.162 160.224C134.497 150.233 125.714 141.953 115.812 135.393C98.7173 123.69 79.5008 117.527 58.188 116.904C37.0418 115.788 15.3862 120.497 -6.76581 130.989L-141.928 195.012C-147.418 197.612 -149.761 204.171 -147.16 209.662L-1.05432 518.115C7.82692 536.864 30.2262 544.864 48.976 535.983C67.7257 527.102 75.7257 504.703 66.8445 485.953L26.0552 399.84C23.9274 395.348 25.844 389.981 30.3361 387.854L99.4066 355.137C120.895 344.958 137.999 331.511 150.687 314.781L150.692 314.775C163.551 297.557 171.042 278.542 173.151 257.747C174.941 241.063 172.845 224.206 166.881 207.186L166.849 207.095L166.8 207.012C163.693 201.696 159.846 198.263 155.217 196.911C150.595 195.561 145.38 196.34 139.643 199.057L131.311 203.004C128.371 204.396 127.117 207.909 128.509 210.85L129.788 213.549C134.989 224.529 136.188 235.147 133.454 245.444C130.596 255.436 124.411 262.675 114.839 267.209C104.447 272.131 94.3888 272.565 84.5939 268.571C74.6347 264.285 67.0543 256.696 61.8576 245.725C56.5285 234.475 55.5969 223.752 58.974 213.499ZM-47.1625 263.261L-47.1596 263.252L-47.1568 263.243C-43.9109 252.727 -36.8727 244.886 -25.9422 239.709C-15.0147 234.533 -4.35153 233.987 6.11395 238.018C16.3276 242.179 24.1013 249.839 29.4286 261.086C34.6192 272.044 35.6303 282.916 32.5049 293.748C28.9928 304.395 21.8163 312.297 10.8918 317.471C-0.0386791 322.649 -10.564 323.127 -20.757 318.977L-20.7576 318.977C-31.3885 314.657 -39.2901 307.048 -44.479 296.094C-49.8032 284.854 -50.6763 273.927 -47.1625 263.261Z" stroke="#9747FF" stroke-width="2"/>
</g>
<path d="M60.0169 214.282L60.02 214.273L60.0229 214.264C63.13 204.171 70.2208 196.461 81.4356 191.149L127.263 169.442C132.432 166.993 137.356 165.245 142.036 164.188C143.434 163.872 144.117 162.196 143.205 161.007C135.54 151.016 126.757 142.736 116.855 136.176C99.7603 124.472 80.5438 118.31 59.231 117.686C38.0848 116.57 16.4291 121.279 -5.72284 131.772L-140.885 195.795C-146.375 198.395 -148.718 204.954 -146.117 210.445L-0.0113558 518.897C8.86989 537.647 31.2692 545.647 50.0189 536.766C68.7687 527.885 76.7687 505.485 67.8874 486.736L27.0981 400.623C24.9703 396.131 26.887 390.764 31.3791 388.636L100.45 355.92C121.938 345.741 139.042 332.293 151.73 315.563L151.734 315.558C164.594 298.339 172.085 279.325 174.194 258.53C175.984 241.846 173.888 224.989 167.924 207.969L167.892 207.878L167.843 207.795C164.736 202.478 160.889 199.046 156.26 197.694C151.638 196.344 146.423 197.123 140.686 199.84L132.354 203.786C129.414 205.179 128.16 208.692 129.552 211.632L130.831 214.331C136.032 225.312 137.231 235.929 134.497 246.226C131.639 256.219 125.454 263.457 115.882 267.991C105.49 272.914 95.4318 273.348 85.6368 269.354C75.6777 265.068 68.0973 257.479 62.9006 246.508C57.5715 235.257 56.6398 224.534 60.0169 214.282ZM-46.1196 264.043L-46.1166 264.034L-46.1138 264.025C-42.8679 253.509 -35.8297 245.669 -24.8993 240.491C-13.9718 235.315 -3.30856 234.77 7.15692 238.8C17.3706 242.962 25.1442 250.622 30.4715 261.869C35.6621 272.827 36.6733 283.699 33.5478 294.531C30.0358 305.177 22.8593 313.079 11.9347 318.254C1.00429 323.431 -9.52107 323.91 -19.714 319.76L-19.7147 319.76C-30.3456 315.439 -38.2472 307.831 -43.436 296.877C-48.7603 285.636 -49.6333 274.71 -46.1196 264.043Z" fill="white" fill-opacity="0.02" stroke="#AE81E9" stroke-width="2"/>
<defs>
<filter id="filter0_f_21_77" x="-159.222" y="105.743" width="343.991" height="444.865" filterUnits="userSpaceOnUse" color-interpolation-filters="sRGB">
<feFlood flood-opacity="0" result="BackgroundImageFix"/>
<feBlend mode="normal" in="SourceGraphic" in2="BackgroundImageFix" result="shape"/>
<feGaussianBlur stdDeviation="5" result="effect1_foregroundBlur_21_77"/>
</filter>
</defs>
</svg>
